<svg width="136" height="24" viewBox="0 0 136 24" fill="none" xmlns="http://www.w3.org/2000/svg">
<g clip-path="url(#clip0_1_11)">
<path fill-rule="evenodd" clip-rule="evenodd" d="M2 6H14L12 12L14 18H2L4 12L2 6Z" fill="#1C0D0F"/>
</g>
<path d="M38.084 19.716C37.232 19.716 36.44 19.56 35.708 19.248C34.988 18.936 34.364 18.504 33.836 17.952C33.32 17.388 32.942 16.734 32.702 15.99L34.736 15.108C35.06 15.876 35.528 16.482 36.14 16.926C36.752 17.358 37.442 17.574 38.21 17.574C38.642 17.574 39.014 17.508 39.326 17.376C39.65 17.232 39.896 17.04 40.064 16.8C40.244 16.56 40.334 16.272 40.334 15.936C40.334 15.54 40.214 15.216 39.974 14.964C39.746 14.7 39.398 14.496 38.93 14.352L36.356 13.524C35.312 13.2 34.526 12.714 33.998 12.066C33.47 11.418 33.206 10.656 33.206 9.78C33.206 9.012 33.392 8.334 33.764 7.746C34.148 7.158 34.676 6.702 35.348 6.378C36.032 6.042 36.812 5.874 37.688 5.874C38.492 5.874 39.23 6.018 39.902 6.306C40.574 6.582 41.15 6.972 41.63 7.476C42.122 7.968 42.488 8.55 42.728 9.222L40.712 10.122C40.448 9.45 40.052 8.934 39.524 8.574C38.996 8.202 38.384 8.016 37.688 8.016C37.28 8.016 36.92 8.088 36.608 8.232C36.296 8.364 36.05 8.556 35.87 8.808C35.702 9.048 35.618 9.336 35.618 9.672C35.618 10.044 35.738 10.374 35.978 10.662C36.218 10.938 36.584 11.154 37.076 11.31L39.542 12.084C40.61 12.432 41.408 12.912 41.936 13.524C42.476 14.136 42.746 14.892 42.746 15.792C42.746 16.56 42.548 17.238 42.152 17.826C41.756 18.414 41.21 18.876 40.514 19.212C39.818 19.548 39.008 19.716 38.084 19.716ZM44.7523 19.5V5.874H47.1103V11.634L46.7863 11.292C47.0143 10.704 47.3863 10.26 47.9023 9.96C48.4303 9.648 49.0423 9.492 49.7383 9.492C50.4583 9.492 51.0943 9.648 51.6463 9.96C52.2103 10.272 52.6483 10.71 52.9603 11.274C53.2723 11.826 53.4283 12.468 53.4283 13.2V19.5H51.0703V13.758C51.0703 13.326 50.9863 12.954 50.8183 12.642C50.6503 12.33 50.4163 12.09 50.1163 11.922C49.8283 11.742 49.4863 11.652 49.0903 11.652C48.7063 11.652 48.3643 11.742 48.0643 11.922C47.7643 12.09 47.5303 12.33 47.3623 12.642C47.1943 12.954 47.1103 13.326 47.1103 13.758V19.5H44.7523ZM60.2102 19.716C59.2502 19.716 58.3742 19.494 57.5822 19.05C56.8022 18.606 56.1782 18 55.7102 17.232C55.2542 16.464 55.0262 15.588 55.0262 14.604C55.0262 13.62 55.2542 12.744 55.7102 11.976C56.1782 11.208 56.8022 10.602 57.5822 10.158C58.3622 9.714 59.2382 9.492 60.2102 9.492C61.1702 9.492 62.0402 9.714 62.8202 10.158C63.6002 10.602 64.2182 11.208 64.6742 11.976C65.1422 12.732 65.3762 13.608 65.3762 14.604C65.3762 15.588 65.1422 16.464 64.6742 17.232C64.2062 18 63.5822 18.606 62.8022 19.05C62.0222 19.494 61.1582 19.716 60.2102 19.716ZM60.2102 17.556C60.7382 17.556 61.2002 17.43 61.5962 17.178C62.0042 16.926 62.3222 16.578 62.5502 16.134C62.7902 15.678 62.9102 15.168 62.9102 14.604C62.9102 14.028 62.7902 13.524 62.5502 13.092C62.3222 12.648 62.0042 12.3 61.5962 12.048C61.2002 11.784 60.7382 11.652 60.2102 11.652C59.6702 11.652 59.1962 11.784 58.7882 12.048C58.3802 12.3 58.0562 12.648 57.8162 13.092C57.5882 13.524 57.4742 14.028 57.4742 14.604C57.4742 15.168 57.5882 15.678 57.8162 16.134C58.0562 16.578 58.3802 16.926 58.7882 17.178C59.1962 17.43 59.6702 17.556 60.2102 17.556ZM67.1644 23.1V9.708H69.3784V11.652L69.1624 11.166C69.4984 10.638 69.9544 10.23 70.5304 9.942C71.1064 9.642 71.7724 9.492 72.5284 9.492C73.4524 9.492 74.2864 9.72 75.0304 10.176C75.7744 10.632 76.3624 11.244 76.7944 12.012C77.2384 12.78 77.4604 13.644 77.4604 14.604C77.4604 15.552 77.2444 16.416 76.8124 17.196C76.3804 17.976 75.7924 18.594 75.0484 19.05C74.3044 19.494 73.4584 19.716 72.5104 19.716C71.8024 19.716 71.1484 19.578 70.5484 19.302C69.9604 19.014 69.4924 18.606 69.1444 18.078L69.5224 17.61V23.1H67.1644ZM72.2404 17.556C72.7804 17.556 73.2604 17.43 73.6804 17.178C74.1004 16.926 74.4244 16.578 74.6524 16.134C74.8924 15.69 75.0124 15.18 75.0124 14.604C75.0124 14.028 74.8924 13.524 74.6524 13.092C74.4244 12.648 74.1004 12.3 73.6804 12.048C73.2604 11.784 72.7804 11.652 72.2404 11.652C71.7244 11.652 71.2564 11.778 70.8364 12.03C70.4284 12.282 70.1044 12.636 69.8644 13.092C69.6364 13.536 69.5224 14.04 69.5224 14.604C69.5224 15.18 69.6364 15.69 69.8644 16.134C70.1044 16.578 70.4284 16.926 70.8364 17.178C71.2564 17.43 71.7244 17.556 72.2404 17.556ZM86.0622 19.716C85.0782 19.716 84.1602 19.542 83.3082 19.194C82.4562 18.846 81.7122 18.36 81.0762 17.736C80.4402 17.112 79.9422 16.38 79.5822 15.54C79.2342 14.688 79.0602 13.77 79.0602 12.786C79.0602 11.79 79.2342 10.872 79.5822 10.032C79.9302 9.192 80.4222 8.46 81.0582 7.836C81.6942 7.212 82.4382 6.732 83.2902 6.396C84.1422 6.048 85.0662 5.874 86.0622 5.874C87.0582 5.874 87.9822 6.048 88.8342 6.396C89.6862 6.744 90.4302 7.23 91.0662 7.854C91.7022 8.466 92.1942 9.192 92.5422 10.032C92.9022 10.872 93.0822 11.79 93.0822 12.786C93.0822 13.77 92.9022 14.688 92.5422 15.54C92.1822 16.38 91.6842 17.112 91.0482 17.736C90.4122 18.36 89.6682 18.846 88.8162 19.194C87.9762 19.542 87.0582 19.716 86.0622 19.716ZM86.0622 17.484C86.7222 17.484 87.3282 17.37 87.8802 17.142C88.4322 16.902 88.9122 16.572 89.3202 16.152C89.7402 15.732 90.0582 15.234 90.2742 14.658C90.5022 14.082 90.6162 13.458 90.6162 12.786C90.6162 12.114 90.5022 11.496 90.2742 10.932C90.0582 10.356 89.7402 9.858 89.3202 9.438C88.9122 9.006 88.4322 8.676 87.8802 8.448C87.3282 8.22 86.7222 8.106 86.0622 8.106C85.4142 8.106 84.8142 8.22 84.2622 8.448C83.7102 8.676 83.2242 9.006 82.8042 9.438C82.3962 9.858 82.0782 10.356 81.8502 10.932C81.6222 11.496 81.5082 12.114 81.5082 12.786C81.5082 13.458 81.6222 14.082 81.8502 14.658C82.0782 15.234 82.3962 15.732 82.8042 16.152C83.2242 16.572 83.7102 16.902 84.2622 17.142C84.8142 17.37 85.4142 17.484 86.0622 17.484ZM95.0609 19.5V9.708H97.2749V11.634L97.0949 11.292C97.3229 10.704 97.6949 10.26 98.2109 9.96C98.7389 9.648 99.3509 9.492 100.047 9.492C100.767 9.492 101.403 9.648 101.955 9.96C102.519 10.272 102.957 10.71 103.269 11.274C103.581 11.826 103.737 12.468 103.737 13.2V19.5H101.379V13.758C101.379 13.326 101.295 12.954 101.127 12.642C100.959 12.33 100.725 12.09 100.425 11.922C100.137 11.742 99.7949 11.652 99.3989 11.652C99.0149 11.652 98.6729 11.742 98.3729 11.922C98.0729 12.09 97.8389 12.33 97.6709 12.642C97.5029 12.954 97.4189 13.326 97.4189 13.758V19.5H95.0609ZM105.731 19.5V5.874H108.089V19.5H105.731ZM110.266 19.5V9.708H112.624V19.5H110.266ZM110.266 8.61V6.09H112.624V8.61H110.266ZM114.801 19.5V9.708H117.015V11.634L116.835 11.292C117.063 10.704 117.435 10.26 117.951 9.96C118.479 9.648 119.091 9.492 119.787 9.492C120.507 9.492 121.143 9.648 121.695 9.96C122.259 10.272 122.697 10.71 123.009 11.274C123.321 11.826 123.477 12.468 123.477 13.2V19.5H121.119V13.758C121.119 13.326 121.035 12.954 120.867 12.642C120.699 12.33 120.465 12.09 120.165 11.922C119.877 11.742 119.535 11.652 119.139 11.652C118.755 11.652 118.413 11.742 118.113 11.922C117.813 12.09 117.579 12.33 117.411 12.642C117.243 12.954 117.159 13.326 117.159 13.758V19.5H114.801ZM130.115 19.716C129.107 19.716 128.225 19.488 127.469 19.032C126.713 18.576 126.125 17.958 125.705 17.178C125.285 16.398 125.075 15.534 125.075 14.586C125.075 13.602 125.285 12.732 125.705 11.976C126.137 11.208 126.719 10.602 127.451 10.158C128.195 9.714 129.023 9.492 129.935 9.492C130.703 9.492 131.375 9.618 131.951 9.87C132.539 10.122 133.037 10.47 133.445 10.914C133.853 11.358 134.165 11.868 134.381 12.444C134.597 13.008 134.705 13.62 134.705 14.28C134.705 14.448 134.693 14.622 134.669 14.802C134.657 14.982 134.627 15.138 134.579 15.27H127.019V13.47H133.247L132.131 14.316C132.239 13.764 132.209 13.272 132.041 12.84C131.885 12.408 131.621 12.066 131.249 11.814C130.889 11.562 130.451 11.436 129.935 11.436C129.443 11.436 129.005 11.562 128.621 11.814C128.237 12.054 127.943 12.414 127.739 12.894C127.547 13.362 127.475 13.932 127.523 14.604C127.475 15.204 127.553 15.738 127.757 16.206C127.973 16.662 128.285 17.016 128.693 17.268C129.113 17.52 129.593 17.646 130.133 17.646C130.673 17.646 131.129 17.532 131.501 17.304C131.885 17.076 132.185 16.77 132.401 16.386L134.309 17.322C134.117 17.79 133.817 18.204 133.409 18.564C133.001 18.924 132.515 19.206 131.951 19.41C131.399 19.614 130.787 19.716 130.115 19.716Z" fill="#1C0D0F"/>
<defs>
<clipPath id="clip0_1_11">
<rect width="16" height="16" fill="white" transform="translate(0 4)"/>
</clipPath>
</defs>
</svg>
